<svg width="30" height="30" viewBox="0 0 30 30" fill="none" xmlns="http://www.w3.org/2000/svg">
<path d="M0 15C0 6.71573 6.71573 0 15 0C23.2843 0 30 6.71573 30 15C30 23.2843 23.2843 30 15 30C6.71573 30 0 23.2843 0 15Z" fill="#DEFFE1"/>
<path opacity="0.4" d="M15 14.1562C14.3881 14.1562 13.79 14.3377 13.2812 14.6776C12.7724 15.0176 12.3759 15.5008 12.1417 16.0661C11.9076 16.6314 11.8463 17.2534 11.9657 17.8536C12.0851 18.4537 12.3797 19.0049 12.8124 19.4376C13.2451 19.8703 13.7963 20.1649 14.3964 20.2843C14.9966 20.4037 15.6186 20.3424 16.1839 20.1083C16.7492 19.8741 17.2324 19.4776 17.5724 18.9688C17.9123 18.46 18.0938 17.8619 18.0938 17.25C18.0938 16.4295 17.7678 15.6426 17.1876 15.0624C16.6074 14.4822 15.8205 14.1562 15 14.1562ZM15 16.125C14.7019 16.1258 14.4162 16.2446 14.2054 16.4554C13.9946 16.6662 13.8758 16.9519 13.875 17.25C13.875 17.3992 13.8157 17.5423 13.7102 17.6477C13.6048 17.7532 13.4617 17.8125 13.3125 17.8125C13.1633 17.8125 13.0202 17.7532 12.9148 17.6477C12.8093 17.5423 12.75 17.3992 12.75 17.25C12.7506 16.6534 12.9878 16.0815 13.4096 15.6596C13.8315 15.2378 14.4034 15.0006 15 15C15.1492 15 15.2923 15.0593 15.3977 15.1648C15.5032 15.2702 15.5625 15.4133 15.5625 15.5625C15.5625 15.7117 15.5032 15.8548 15.3977 15.9602C15.2923 16.0657 15.1492 16.125 15 16.125ZM22.875 7.125H15L12.75 8.8125H6.5625C6.41332 8.8125 6.27024 8.87176 6.16475 8.97725C6.05926 9.08274 6 9.22582 6 9.375V11.625H24V8.25C23.9992 7.95189 23.8804 7.66622 23.6696 7.45543C23.4588 7.24463 23.1731 7.12583 22.875 7.125Z" fill="#65D170"/>
<path d="M12.1875 7.6875C12.1875 7.53832 12.1282 7.39524 12.0227 7.28975C11.9173 7.18426 11.7742 7.125 11.625 7.125H8.25C8.10082 7.125 7.95774 7.18426 7.85225 7.28975C7.74676 7.39524 7.6875 7.53832 7.6875 7.6875V8.8125H12.1875V7.6875ZM6 11.625V21.1875C6 21.6351 6.17779 22.0643 6.49426 22.3807C6.81072 22.6972 7.23995 22.875 7.6875 22.875H22.3125C22.7601 22.875 23.1893 22.6972 23.5057 22.3807C23.8222 22.0643 24 21.6351 24 21.1875V11.625H6ZM15 21.4688C14.1656 21.4688 13.35 21.2213 12.6562 20.7578C11.9624 20.2942 11.4217 19.6353 11.1024 18.8644C10.7831 18.0936 10.6995 17.2453 10.8623 16.427C11.0251 15.6086 11.4269 14.8569 12.0169 14.2669C12.6069 13.6769 13.3586 13.2751 14.177 13.1123C14.9953 12.9495 15.8436 13.0331 16.6144 13.3524C17.3853 13.6717 18.0442 14.2124 18.5078 14.9062C18.9713 15.6 19.2188 16.4156 19.2188 17.25C19.2188 18.3689 18.7743 19.4419 17.9831 20.2331C17.1919 21.0243 16.1189 21.4688 15 21.4688Z" fill="#65D170"/>
</svg>
