<svg width="150" height="150" viewBox="0 0 24 24" fill="none" xmlns="http://www.w3.org/2000/svg">
<g clip-path="url(#clip0_1228_3249)">
<path opacity="0.4" d="M17.5024 14.6379C17.0776 14.2705 16.6166 13.947 16.1266 13.6724L10.9234 9.65105C13.9907 9.36531 17.1537 10.302 19.5997 12.4653C19.6607 12.5193 19.7099 12.5853 19.7443 12.6592C19.7786 12.7331 19.7973 12.8133 19.7993 12.8948C19.8013 12.9762 19.7864 13.0572 19.7557 13.1327C19.725 13.2081 19.679 13.2765 19.6207 13.3334L18.3293 14.6083C18.2202 14.7159 18.0747 14.7787 17.9216 14.7842C17.7685 14.7896 17.6189 14.7375 17.5024 14.6379ZM7.78514 7.22566C12.5129 5.78348 17.844 6.82706 21.697 10.3579C21.8121 10.4637 21.9635 10.5213 22.1198 10.5186C22.2762 10.516 22.4255 10.4533 22.5369 10.3436L23.8209 9.0687C23.8783 9.01212 23.9237 8.94448 23.9543 8.86986C23.9848 8.79524 23.9999 8.7152 23.9987 8.63458C23.9974 8.55396 23.9798 8.47443 23.9469 8.40081C23.914 8.32719 23.8666 8.26099 23.8074 8.20624C18.6146 3.40422 11.1664 2.35839 4.99002 5.06501L7.78514 7.22566ZM9.60005 17.9997C9.59838 18.6035 9.82486 19.1858 10.2342 19.6298C10.6435 20.0738 11.2054 20.3469 11.8074 20.3943C12.4094 20.4417 13.0072 20.26 13.4809 19.8855C13.9547 19.511 14.2695 18.9714 14.3623 18.3746L11.0362 15.8038C10.6095 15.9909 10.2465 16.2981 9.99148 16.6881C9.73645 17.078 9.60044 17.5337 9.60005 17.9997ZM0.191369 8.20774C0.132109 8.26246 0.084585 8.32865 0.0516797 8.4023C0.0187744 8.47594 0.00117418 8.55551 -5.31301e-05 8.63616C-0.00128044 8.71681 0.0138908 8.79687 0.04454 8.87148C0.0751892 8.94609 0.120677 9.0137 0.178245 9.0702L1.46293 10.3425C1.57437 10.4522 1.72372 10.5149 1.88007 10.5175C2.03642 10.5202 2.1878 10.4626 2.3029 10.3568C2.56538 10.1168 2.8395 9.89854 3.11473 9.6818L0.678096 7.80013C0.516854 7.93775 0.348487 8.06262 0.191369 8.20774ZM4.43692 12.4645C4.37622 12.5188 4.32728 12.585 4.29311 12.6589C4.25895 12.7328 4.2403 12.8129 4.23829 12.8943C4.23629 12.9757 4.25099 13.0567 4.28147 13.1322C4.31196 13.2077 4.35759 13.2762 4.41555 13.3334L5.70099 14.6083C5.80918 14.7159 5.95397 14.7788 6.10647 14.7843C6.25897 14.7899 6.40795 14.7378 6.5237 14.6383C7.0243 14.2033 7.57365 13.8636 8.14175 13.5677L5.57837 11.5875C5.17954 11.8551 4.79827 12.1481 4.43692 12.4645Z" fill="#DC241F"/>
<path d="M23.8738 20.4203L23.1374 21.3679C23.089 21.4302 23.0289 21.4823 22.9603 21.5212C22.8918 21.5602 22.8163 21.5853 22.7381 21.5951C22.6599 21.6049 22.5805 21.5992 22.5045 21.5783C22.4285 21.5574 22.3574 21.5217 22.2952 21.4733L0.232696 4.4217C0.107102 4.32403 0.0254453 4.18048 0.00568517 4.02261C-0.0140749 3.86474 0.0296796 3.70548 0.127326 3.57987L0.863416 2.63229C0.911785 2.56999 0.971961 2.51785 1.0405 2.47883C1.10904 2.43981 1.1846 2.41469 1.26286 2.40491C1.34112 2.39512 1.42054 2.40086 1.49658 2.42179C1.57262 2.44273 1.64378 2.47845 1.706 2.52692L23.7685 19.5785C23.8941 19.6762 23.9757 19.8197 23.9955 19.9776C24.0152 20.1355 23.9715 20.2947 23.8738 20.4203Z" fill="#DC241F"/>
</g>
<defs>
<clipPath id="clip0_1228_3249">
<rect width="24" height="24" fill="white"/>
</clipPath>
</defs>
</svg>
