<svg width="80" height="80" viewBox="0 0 80 80" fill="none" xmlns="http://www.w3.org/2000/svg">
<path opacity="0.4" d="M40 0C17.9032 0 0 17.9032 0 40C0 62.0968 17.9032 80 40 80C62.0968 80 80 62.0968 80 40C80 17.9032 62.0968 0 40 0ZM65.05 31.5016L35.3726 61.179C34.8887 61.6626 34.2325 61.9343 33.5484 61.9343C32.8643 61.9343 32.2081 61.6626 31.7242 61.179L14.95 44.4048C14.4664 43.9209 14.1947 43.2648 14.1947 42.5806C14.1947 41.8965 14.4664 41.2404 14.95 40.7565L18.5984 37.1064C18.838 36.8668 19.1225 36.6766 19.4357 36.5469C19.7488 36.4172 20.0844 36.3504 20.4234 36.3504C20.7623 36.3504 21.098 36.4172 21.4111 36.5469C21.7242 36.6766 22.0087 36.8668 22.2484 37.1064L33.5484 48.4064L57.7516 24.2032C57.9913 23.9635 58.2758 23.7734 58.5889 23.6437C58.902 23.5139 59.2377 23.4472 59.5766 23.4472C59.9156 23.4472 60.2512 23.5139 60.5643 23.6437C60.8775 23.7734 61.162 23.9635 61.4016 24.2032L65.05 27.8532C65.5336 28.3371 65.8053 28.9933 65.8053 29.6774C65.8053 30.3616 65.5336 31.0177 65.05 31.5016Z" fill="#75D37F"/>
<path d="M35.3728 61.1769C34.8889 61.6605 34.2328 61.9321 33.5486 61.9321C32.8645 61.9321 32.2084 61.6605 31.7245 61.1769L14.9503 44.4027C14.4667 43.9188 14.195 43.2627 14.195 42.5785C14.195 41.8944 14.4667 41.2383 14.9503 40.7543L18.5986 37.1043C18.8383 36.8646 19.1228 36.6745 19.4359 36.5448C19.7491 36.415 20.0847 36.3483 20.4236 36.3483C20.7626 36.3483 21.0982 36.415 21.4114 36.5448C21.7245 36.6745 22.009 36.8646 22.2487 37.1043L33.5486 48.4043L57.7519 24.2011C57.9915 23.9614 58.276 23.7713 58.5892 23.6416C58.9023 23.5118 59.2379 23.4451 59.5769 23.4451C59.9158 23.4451 60.2514 23.5118 60.5646 23.6416C60.8777 23.7713 61.1622 23.9614 61.4019 24.2011L65.0503 27.8511C65.5339 28.335 65.8055 28.9912 65.8055 29.6753C65.8055 30.3595 65.5339 31.0156 65.0503 31.4995L35.3728 61.1769Z" fill="#75D37F"/>
</svg>
