<svg width="30" height="30" viewBox="0 0 30 30" fill="none" xmlns="http://www.w3.org/2000/svg">
<path d="M0 15C0 6.71573 6.71573 0 15 0C23.2843 0 30 6.71573 30 15C30 23.2843 23.2843 30 15 30C6.71573 30 0 23.2843 0 15Z" fill="#DEFFE1"/>
<g clip-path="url(#clip0_4332_41591)">
<path opacity="0.4" d="M7.8 12.3H10.3954L10.6108 10.5H7.35C6.99196 10.5 6.64858 10.6422 6.39541 10.8954C6.14223 11.1486 6 11.492 6 11.85V18.15C6 18.508 6.14223 18.8514 6.39541 19.1046C6.64858 19.3578 6.99196 19.5 7.35 19.5H12.4297L12.8282 17.7H7.8V12.3ZM23.325 12.3H23.1V11.85C23.1 11.492 22.9578 11.1486 22.7046 10.8954C22.4514 10.6422 22.108 10.5 21.75 10.5H17.4013L17.1215 11.85H18.0594C18.5046 11.8491 18.9351 12.0089 19.2719 12.3H21.3V14.1H22.2V15.9H21.3V17.7H18.0142L16.9842 19.5H21.75C22.108 19.5 22.4514 19.3578 22.7046 19.1046C22.9578 18.8514 23.1 18.508 23.1 18.15V17.7H23.325C23.504 17.7 23.6757 17.6289 23.8023 17.5023C23.9289 17.3757 24 17.204 24 17.025V12.975C24 12.796 23.9289 12.6243 23.8023 12.4977C23.6757 12.3711 23.504 12.3 23.325 12.3Z" fill="#65D170"/>
<path d="M18.5266 14.0865L14.5674 21.0052C14.5238 21.0923 14.4571 21.1657 14.3748 21.2177C14.2924 21.2696 14.1974 21.2981 14.1 21.3C13.7552 21.3 13.4939 20.9467 13.5749 20.5732L14.611 15.8935H11.9391C11.6129 15.8935 11.3609 15.579 11.4048 15.225L12.1248 9.21239C12.1593 8.91904 12.3894 8.69995 12.66 8.69995H15.72C16.0743 8.69995 16.3331 9.06811 16.2417 9.44273L15.4629 13.2H18.0594C18.4751 13.2 18.7347 13.6935 18.5266 14.0865Z" fill="#65D170"/>
</g>
<defs>
<clipPath id="clip0_4332_41591">
<rect width="18" height="18" fill="white" transform="translate(6 6)"/>
</clipPath>
</defs>
</svg>
