<svg width="20" height="20" viewBox="0 0 20 20" fill="none" xmlns="http://www.w3.org/2000/svg">
<rect width="20" height="20" rx="4" fill="#FFE9E9"/>
<g clip-path="url(#clip0_3997_19524)">
<path opacity="0.4" d="M16.3 4.3999H6.5C6.31435 4.3999 6.1363 4.47365 6.00503 4.60493C5.87375 4.7362 5.8 4.91425 5.8 5.0999V7.1999H9.3V5.7999H13.5V12.7999H16.3C16.4857 12.7999 16.6637 12.7262 16.795 12.5949C16.9263 12.4636 17 12.2856 17 12.0999V5.0999C17 4.91425 16.9263 4.7362 16.795 4.60493C16.6637 4.47365 16.4857 4.3999 16.3 4.3999V4.3999ZM8.075 6.65303C8.075 6.70524 8.05426 6.75532 8.01734 6.79224C7.98042 6.82916 7.93034 6.8499 7.87813 6.8499H7.22188C7.16966 6.8499 7.11959 6.82916 7.08267 6.79224C7.04575 6.75532 7.025 6.70524 7.025 6.65303V5.99678C7.025 5.94456 7.04575 5.89449 7.08267 5.85757C7.11959 5.82064 7.16966 5.7999 7.22188 5.7999H7.87813C7.93034 5.7999 7.98042 5.82064 8.01734 5.85757C8.05426 5.89449 8.075 5.94456 8.075 5.99678V6.65303ZM15.775 11.203C15.775 11.2552 15.7543 11.3053 15.7173 11.3422C15.6804 11.3792 15.6303 11.3999 15.5781 11.3999H14.9219C14.8697 11.3999 14.8196 11.3792 14.7827 11.3422C14.7457 11.3053 14.725 11.2552 14.725 11.203V10.5468C14.725 10.4946 14.7457 10.4445 14.7827 10.4076C14.8196 10.3706 14.8697 10.3499 14.9219 10.3499H15.5781C15.6303 10.3499 15.6804 10.3706 15.7173 10.4076C15.7543 10.4445 15.775 10.4946 15.775 10.5468V11.203ZM15.775 8.92803C15.775 8.98024 15.7543 9.03032 15.7173 9.06724C15.6804 9.10416 15.6303 9.1249 15.5781 9.1249H14.9219C14.8697 9.1249 14.8196 9.10416 14.7827 9.06724C14.7457 9.03032 14.725 8.98024 14.725 8.92803V8.27178C14.725 8.21956 14.7457 8.16949 14.7827 8.13257C14.8196 8.09564 14.8697 8.0749 14.9219 8.0749H15.5781C15.6303 8.0749 15.6804 8.09564 15.7173 8.13257C15.7543 8.16949 15.775 8.21956 15.775 8.27178V8.92803ZM15.775 6.65303C15.775 6.70524 15.7543 6.75532 15.7173 6.79224C15.6804 6.82916 15.6303 6.8499 15.5781 6.8499H14.9219C14.8697 6.8499 14.8196 6.82916 14.7827 6.79224C14.7457 6.75532 14.725 6.70524 14.725 6.65303V5.99678C14.725 5.94456 14.7457 5.89449 14.7827 5.85757C14.8196 5.82064 14.8697 5.7999 14.9219 5.7999H15.5781C15.6303 5.7999 15.6804 5.82064 15.7173 5.85757C15.7543 5.89449 15.775 5.94456 15.775 5.99678V6.65303Z" fill="#DC241F"/>
<path d="M12.1 7.8999H3.7C3.51435 7.8999 3.3363 7.97365 3.20503 8.10493C3.07375 8.2362 3 8.41425 3 8.5999V14.8999C3 15.0856 3.07375 15.2636 3.20503 15.3949C3.3363 15.5262 3.51435 15.5999 3.7 15.5999H12.1C12.2857 15.5999 12.4637 15.5262 12.595 15.3949C12.7262 15.2636 12.8 15.0856 12.8 14.8999V8.5999C12.8 8.41425 12.7262 8.2362 12.595 8.10493C12.4637 7.97365 12.2857 7.8999 12.1 7.8999ZM5.1 9.2999C5.23845 9.2999 5.37378 9.34096 5.4889 9.41787C5.60401 9.49479 5.69373 9.60412 5.74672 9.73202C5.7997 9.85993 5.81356 10.0007 5.78655 10.1365C5.75954 10.2723 5.69287 10.397 5.59497 10.4949C5.49708 10.5928 5.37235 10.6594 5.23656 10.6865C5.10078 10.7135 4.96003 10.6996 4.83212 10.6466C4.70421 10.5936 4.59489 10.5039 4.51797 10.3888C4.44105 10.2737 4.4 10.1383 4.4 9.9999C4.4 9.81425 4.47375 9.6362 4.60503 9.50493C4.7363 9.37365 4.91435 9.2999 5.1 9.2999ZM11.4 14.1999H4.4V13.4999L5.8 12.0999L6.5 12.7999L9.3 9.9999L11.4 12.0999V14.1999Z" fill="#DC241F"/>
</g>
<defs>
<clipPath id="clip0_3997_19524">
<rect width="14" height="14" fill="white" transform="translate(3 3)"/>
</clipPath>
</defs>
</svg>
