<svg width="33" height="32" viewBox="0 0 33 32" fill="none" xmlns="http://www.w3.org/2000/svg">
<rect x="0.5" width="32" height="32" rx="6" fill="white"/>
<g clip-path="url(#clip0_3974_19335)">
<path opacity="0.4" d="M28.025 7.84376L25.9917 5.81043C25.6862 5.50622 25.2727 5.33542 24.8417 5.33542C24.4106 5.33542 23.9971 5.50622 23.6917 5.81043L22.2167 7.28543C22.1406 7.36179 22.0979 7.46517 22.0979 7.57293C22.0979 7.68069 22.1406 7.78406 22.2167 7.86043L25.975 11.6188C26.0514 11.6948 26.1547 11.7375 26.2625 11.7375C26.3703 11.7375 26.4736 11.6948 26.55 11.6188L28.025 10.1438C28.3292 9.83834 28.5 9.42483 28.5 8.99376C28.5 8.56269 28.3292 8.14918 28.025 7.84376ZM22.3125 17.7354L20.6458 19.4021C20.5533 19.4969 20.501 19.6238 20.5 19.7563V23.9979H7.16667V10.6646H16.7417C16.8741 10.6636 17.0011 10.6113 17.0958 10.5188L18.7625 8.85209C18.8327 8.78216 18.8805 8.69296 18.8999 8.59581C18.9193 8.49866 18.9094 8.39793 18.8714 8.30642C18.8335 8.2149 18.7692 8.13672 18.6868 8.0818C18.6043 8.02688 18.5074 7.99768 18.4083 7.99793H6.5C5.96957 7.99793 5.46086 8.20864 5.08579 8.58371C4.71071 8.95879 4.5 9.46749 4.5 9.99793V24.6646C4.5 25.195 4.71071 25.7037 5.08579 26.0788C5.46086 26.4539 5.96957 26.6646 6.5 26.6646H21.1667C21.6971 26.6646 22.2058 26.4539 22.5809 26.0788C22.9559 25.7037 23.1667 25.195 23.1667 24.6646V18.0896C23.1669 17.9905 23.1377 17.8936 23.0828 17.8112C23.0279 17.7287 22.9497 17.6644 22.8582 17.6265C22.7667 17.5885 22.6659 17.5786 22.5688 17.598C22.4716 17.6174 22.3824 17.6652 22.3125 17.7354Z" fill="#DC241F"/>
<path d="M25.0332 12.5564C25.1092 12.6328 25.1519 12.7362 25.1519 12.8439C25.1519 12.9517 25.1092 13.0551 25.0332 13.1314L15.9332 22.2314L12.0666 22.6606C11.9456 22.6742 11.8232 22.6603 11.7083 22.6201C11.5934 22.5799 11.4891 22.5143 11.403 22.4283C11.317 22.3422 11.2514 22.2379 11.2112 22.123C11.171 22.0082 11.1571 21.8857 11.1707 21.7648L11.5999 17.8981L20.6999 8.79809C20.7762 8.72206 20.8796 8.67938 20.9874 8.67938C21.0951 8.67938 21.1985 8.72206 21.2749 8.79809L25.0332 12.5564Z" fill="#DC241F"/>
</g>
<defs>
<clipPath id="clip0_3974_19335">
<rect width="24" height="24" fill="white" transform="translate(4.5 4)"/>
</clipPath>
</defs>
</svg>
