<svg width="28" height="28" viewBox="0 0 28 28" fill="none" xmlns="http://www.w3.org/2000/svg">
<rect width="28" height="28" rx="8" fill="#FFE9E9"/>
<g clip-path="url(#clip0_5530_681)">
<path opacity="0.4" d="M11.0311 21.5H7.74985C6.75529 21.5 5.80146 21.1049 5.0982 20.4017C4.39494 19.6984 3.99985 18.7446 3.99985 17.75V10.25C3.99985 9.25544 4.39494 8.30161 5.0982 7.59835C5.80146 6.89509 6.75529 6.5 7.74985 6.5H11.0311C11.1554 6.5 11.2746 6.54939 11.3626 6.63729C11.4505 6.7252 11.4998 6.84443 11.4998 6.96875V8.53125C11.4998 8.65557 11.4505 8.7748 11.3626 8.86271C11.2746 8.95061 11.1554 9 11.0311 9H7.74985C7.41833 9 7.10038 9.1317 6.86596 9.36612C6.63154 9.60054 6.49985 9.91848 6.49985 10.25V17.75C6.49985 18.0815 6.63154 18.3995 6.86596 18.6339C7.10038 18.8683 7.41833 19 7.74985 19H11.0311C11.1554 19 11.2746 19.0494 11.3626 19.1373C11.4505 19.2252 11.4998 19.3444 11.4998 19.4688V21.0312C11.4998 21.1556 11.4505 21.2748 11.3626 21.3627C11.2746 21.4506 11.1554 21.5 11.0311 21.5Z" fill="#DC241F"/>
<path d="M17.7889 7.44853L23.7224 13.3313C23.8104 13.4185 23.8803 13.5223 23.9279 13.6366C23.9756 13.7509 24.0002 13.8735 24.0002 13.9974C24.0002 14.1212 23.9756 14.2438 23.9279 14.3582C23.8803 14.4725 23.8104 14.5762 23.7224 14.6634L17.7849 20.554C17.6083 20.7281 17.37 20.8253 17.122 20.8246C16.874 20.8238 16.6364 20.7252 16.4607 20.5501L15.6053 19.6946C15.516 19.6048 15.4458 19.4979 15.3989 19.3803C15.352 19.2627 15.3293 19.1368 15.3322 19.0102C15.3352 18.8837 15.3636 18.759 15.4159 18.6437C15.4682 18.5283 15.5432 18.4248 15.6365 18.3392L18.6678 15.5618H11.1873C11.0641 15.5621 10.942 15.5381 10.8282 15.4911C10.7143 15.4441 10.6108 15.375 10.5237 15.2879C10.4366 15.2008 10.3675 15.0973 10.3205 14.9834C10.2735 14.8696 10.2495 14.7475 10.2498 14.6243V13.3743C10.2495 13.2511 10.2735 13.1291 10.3205 13.0152C10.3675 12.9013 10.4366 12.7978 10.5237 12.7107C10.6108 12.6236 10.7143 12.5546 10.8282 12.5075C10.942 12.4605 11.0641 12.4365 11.1873 12.4368H18.6678L15.6365 9.65947C15.5437 9.57385 15.4692 9.47038 15.4174 9.35525C15.3656 9.24013 15.3376 9.11573 15.335 8.98951C15.3325 8.8633 15.3555 8.73787 15.4026 8.62074C15.4497 8.50362 15.5199 8.39721 15.6092 8.30791L16.4646 7.45244C16.6399 7.2766 16.8777 7.17743 17.1259 7.1767C17.3742 7.17597 17.6126 7.27373 17.7889 7.44853Z" fill="#DC241F"/>
</g>
<defs>
<clipPath id="clip0_5530_681">
<rect width="20" height="20" fill="white" transform="translate(4 4)"/>
</clipPath>
</defs>
</svg>
