<svg width="28" height="28" viewBox="0 0 28 28" fill="none" xmlns="http://www.w3.org/2000/svg">
<rect width="28" height="28" rx="8" fill="#FFE9E9"/>
<path opacity="0.4" d="M19 9C19 9.98891 18.7067 10.9556 18.1573 11.7779C17.6079 12.6001 16.827 13.241 15.9134 13.6194C14.9997 13.9978 13.9944 14.0969 13.0245 13.9039C12.0546 13.711 11.1637 13.2348 10.4644 12.5355C9.76516 11.8363 9.28896 10.9454 9.09603 9.97545C8.9031 9.00555 9.00212 8.00021 9.38056 7.08658C9.759 6.17295 10.3999 5.39206 11.2221 4.84265C12.0444 4.29324 13.0111 4 14 4C15.326 4 16.5978 4.52678 17.5355 5.46447C18.4732 6.40215 19 7.67392 19 9Z" fill="#DC241F"/>
<path d="M17.5 15.25H16.8477C15.9548 15.6617 14.9832 15.8749 14 15.8749C13.0168 15.8749 12.0452 15.6617 11.1523 15.25H10.5C9.10771 15.2503 7.77253 15.8035 6.78803 16.788C5.80353 17.7725 5.25031 19.1077 5.25 20.5V22.125C5.25 22.6223 5.44754 23.0992 5.79917 23.4508C6.15081 23.8025 6.62772 24 7.125 24H20.875C21.3723 24 21.8492 23.8025 22.2008 23.4508C22.5525 23.0992 22.75 22.6223 22.75 22.125V20.5C22.7497 19.1077 22.1965 17.7725 21.212 16.788C20.2275 15.8035 18.8923 15.2503 17.5 15.25Z" fill="#DC241F"/>
</svg>
