<svg width="28" height="28" viewBox="0 0 28 28" fill="none" xmlns="http://www.w3.org/2000/svg">
<rect width="28" height="28" rx="8" fill="#FFE9E9"/>
<path opacity="0.4" d="M23.3277 16.4032L21.61 15.4113C21.7834 14.4757 21.7834 13.5162 21.61 12.5806L23.3277 11.5887C23.4229 11.5334 23.4966 11.4475 23.5369 11.3451C23.5772 11.2426 23.5816 11.1295 23.5495 11.0242C23.1056 9.60516 22.3522 8.30234 21.3439 7.20968C21.2697 7.12884 21.1702 7.07562 21.0617 7.05877C20.9533 7.04192 20.8423 7.06243 20.7471 7.11694L19.0294 8.10887C18.3078 7.488 17.4762 7.00793 16.5777 6.69355V4.71371C16.5777 4.60397 16.5404 4.49751 16.4719 4.41179C16.4034 4.32606 16.3078 4.26617 16.2007 4.24194C14.7507 3.91935 13.2475 3.91935 11.7975 4.24194C11.6901 4.26577 11.594 4.32549 11.5251 4.41125C11.4562 4.49702 11.4186 4.6037 11.4185 4.71371V6.69758C10.5222 7.01682 9.69149 7.4964 8.96686 8.1129L7.25113 7.12097C7.15613 7.06558 7.04496 7.04456 6.93629 7.06145C6.82762 7.07833 6.72807 7.1321 6.65436 7.21371C5.6443 8.30513 4.89074 9.60836 4.44871 11.0282C4.4158 11.1335 4.41984 11.2469 4.46017 11.3495C4.50051 11.4522 4.57471 11.538 4.67049 11.5927L6.38823 12.5847C6.21484 13.5203 6.21484 14.4797 6.38823 15.4153L4.67049 16.4073C4.57513 16.4624 4.50129 16.5483 4.46102 16.6508C4.42074 16.7533 4.4164 16.8665 4.44871 16.9718C4.89241 18.3909 5.64576 19.6938 6.65436 20.7863C6.72857 20.8671 6.82806 20.9203 6.9365 20.9372C7.04494 20.954 7.15588 20.9335 7.25113 20.879L8.96887 19.8871C9.69026 20.5082 10.5219 20.9883 11.4205 21.3024V23.2863C11.4206 23.3963 11.4582 23.503 11.5271 23.5887C11.596 23.6745 11.6921 23.7342 11.7995 23.7581C13.2495 24.0806 14.7527 24.0806 16.2027 23.7581C16.3101 23.7342 16.4062 23.6745 16.4751 23.5887C16.544 23.503 16.5816 23.3963 16.5818 23.2863V21.3024C17.478 20.9831 18.3087 20.5035 19.0334 19.8871L20.7511 20.879C20.8462 20.9343 20.9573 20.9553 21.066 20.9384C21.1746 20.9216 21.2741 20.8678 21.3479 20.7863C22.3581 19.695 23.1117 18.3917 23.5535 16.9718C23.5845 16.8654 23.579 16.7517 23.5381 16.6488C23.4972 16.5458 23.4232 16.4594 23.3277 16.4032ZM13.9971 17.8629C13.2323 17.8629 12.4847 17.6361 11.8487 17.2112C11.2128 16.7863 10.7172 16.1824 10.4245 15.4758C10.1318 14.7692 10.0553 13.9917 10.2045 13.2416C10.3537 12.4915 10.722 11.8024 11.2628 11.2616C11.8036 10.7208 12.4926 10.3525 13.2427 10.2033C13.9928 10.0541 14.7703 10.1307 15.4769 10.4234C16.1835 10.7161 16.7874 11.2117 17.2123 11.8476C17.6372 12.4835 17.864 13.2312 17.864 13.996C17.8641 14.5038 17.7641 15.0067 17.5698 15.4758C17.3755 15.945 17.0906 16.3713 16.7316 16.7304C16.3725 17.0895 15.9462 17.3743 15.477 17.5687C15.0078 17.763 14.5049 17.863 13.9971 17.8629Z" fill="#DC241F"/>
<path d="M13.997 16.5726C13.4874 16.5726 12.9893 16.4215 12.5656 16.1383C12.1418 15.8552 11.8116 15.4528 11.6166 14.982C11.4215 14.5112 11.3705 13.9931 11.4699 13.4933C11.5694 12.9935 11.8148 12.5344 12.1751 12.174C12.5354 11.8137 12.9946 11.5683 13.4944 11.4689C13.9942 11.3694 14.5123 11.4205 14.9831 11.6155C15.4539 11.8105 15.8563 12.1407 16.1394 12.5645C16.4225 12.9882 16.5737 13.4864 16.5737 13.996C16.5737 14.3343 16.507 14.6694 16.3775 14.982C16.248 15.2946 16.0582 15.5786 15.819 15.8179C15.5797 16.0572 15.2957 16.247 14.9831 16.3764C14.6705 16.5059 14.3354 16.5726 13.997 16.5726Z" fill="#DC241F"/>
</svg>
