<svg width="30" height="30" viewBox="0 0 30 30" fill="none" xmlns="http://www.w3.org/2000/svg">
<path d="M0 15C0 6.71573 6.71573 0 15 0C23.2843 0 30 6.71573 30 15C30 23.2843 23.2843 30 15 30C6.71573 30 0 23.2843 0 15Z" fill="#DEFFE1"/>
<path opacity="0.4" d="M23.3144 12.0362L19 14V23L23.3713 21.2516C23.5568 21.1774 23.7159 21.0492 23.828 20.8837C23.9401 20.7183 24 20.523 24 20.3231V12.5C23.9999 12.4183 23.9798 12.3379 23.9415 12.2658C23.9032 12.1937 23.8478 12.1321 23.7801 12.0863C23.7125 12.0406 23.6347 12.0121 23.5535 12.0034C23.4723 11.9946 23.3902 12.0059 23.3144 12.0362ZM6.62875 13.75C6.44341 13.8241 6.28449 13.9519 6.17244 14.1171C6.06039 14.2823 6.00033 14.4772 6 14.6769V22.5C5.99998 22.5817 6.01999 22.6622 6.05828 22.7344C6.09656 22.8066 6.15195 22.8683 6.21961 22.9141C6.28726 22.9599 6.36512 22.9884 6.44636 22.9972C6.5276 23.006 6.60975 22.9947 6.68563 22.9644L11 21V13.7162C10.7382 13.2522 10.5161 12.767 10.3359 12.2656L6.62875 13.75ZM15 18.2397C14.7826 18.2395 14.5679 18.1919 14.3708 18.1001C14.1738 18.0084 13.9991 17.8747 13.8591 17.7084C13.2447 16.9847 12.5912 16.159 12 15.3125V21L18 23V15.3125C17.4087 16.159 16.7556 16.985 16.1409 17.71C16.0007 17.8759 15.826 18.0093 15.6289 18.1008C15.4319 18.1923 15.2173 18.2397 15 18.2397Z" fill="#65D170"/>
<path d="M15 6.99951C13.9557 6.99951 12.9542 7.41435 12.2158 8.15278C11.4773 8.8912 11.0625 9.89272 11.0625 10.937C11.0625 12.6951 13.6359 15.8995 14.6219 17.062C14.6681 17.1173 14.726 17.1619 14.7913 17.1924C14.8566 17.2229 14.9279 17.2388 15 17.2388C15.0721 17.2388 15.1434 17.2229 15.2087 17.1924C15.274 17.1619 15.3319 17.1173 15.3781 17.062C16.3641 15.8995 18.9375 12.6951 18.9375 10.937C18.9375 9.89272 18.5227 8.8912 17.7842 8.15278C17.0458 7.41435 16.0443 6.99951 15 6.99951V6.99951ZM15 12.2495C14.7404 12.2495 14.4867 12.1725 14.2708 12.0283C14.055 11.8841 13.8867 11.6791 13.7874 11.4393C13.6881 11.1995 13.6621 10.9356 13.7127 10.681C13.7634 10.4264 13.8884 10.1925 14.0719 10.0089C14.2555 9.82538 14.4893 9.70037 14.7439 9.64973C14.9985 9.59909 15.2624 9.62508 15.5023 9.72442C15.7421 9.82376 15.9471 9.99199 16.0913 10.2078C16.2355 10.4237 16.3125 10.6774 16.3125 10.937C16.3125 11.2851 16.1742 11.6189 15.9281 11.8651C15.6819 12.1112 15.3481 12.2495 15 12.2495Z" fill="#65D170"/>
</svg>
