<svg width="31" height="30" viewBox="0 0 31 30" fill="none" xmlns="http://www.w3.org/2000/svg">
<path d="M0.333328 15C0.333328 6.71573 7.04906 0 15.3333 0C23.6176 0 30.3333 6.71573 30.3333 15C30.3333 23.2843 23.6176 30 15.3333 30C7.04906 30 0.333328 23.2843 0.333328 15Z" fill="#F4F7FB"/>
<g clip-path="url(#clip0_4336_40945)">
<path opacity="0.4" d="M23.8355 15.425L20.5955 14.1594C20.3945 14.0823 20.1721 14.0823 19.9711 14.1594L16.7311 15.425C16.4302 15.5431 16.2333 15.8187 16.2333 16.1253C16.2333 19.2641 18.1655 21.4353 19.9711 22.1412C20.1721 22.2183 20.3945 22.2183 20.5955 22.1412C22.0383 21.5787 24.3333 19.6269 24.3333 16.1253C24.3333 15.8187 24.1365 15.5431 23.8355 15.425ZM20.2833 20.8053V15.4869L22.9693 16.5359C22.8118 18.9856 21.2565 20.3441 20.2833 20.8053Z" fill="#848EAA"/>
<path d="M12.6333 15.0008C13.3453 15.0008 14.0414 14.7896 14.6334 14.3941C15.2254 13.9985 15.6868 13.4363 15.9593 12.7784C16.2318 12.1206 16.3031 11.3968 16.1642 10.6985C16.0252 10.0001 15.6824 9.35867 15.1789 8.8552C14.6754 8.35173 14.034 8.00886 13.3357 7.86996C12.6373 7.73105 11.9135 7.80234 11.2557 8.07482C10.5979 8.34729 10.0356 8.80871 9.64004 9.40073C9.24446 9.99275 9.03333 10.6888 9.03333 11.4008C9.03333 12.3556 9.41261 13.2712 10.0877 13.9464C10.7629 14.6215 11.6785 15.0008 12.6333 15.0008ZM15.3333 16.1258C15.3333 16.0555 15.3558 15.9908 15.3643 15.9233C15.294 15.9205 15.2265 15.9008 15.1533 15.9008H14.6836C14.0408 16.1972 13.3413 16.3508 12.6333 16.3508C11.9254 16.3508 11.2259 16.1972 10.583 15.9008H10.1133C9.11088 15.901 8.14955 16.2993 7.44071 17.0082C6.73187 17.717 6.33355 18.6783 6.33333 19.6808V20.8508C6.33333 21.2088 6.47556 21.5522 6.72873 21.8054C6.98191 22.0585 7.32529 22.2008 7.68333 22.2008H17.5833C17.7691 22.1999 17.9527 22.1616 18.1233 22.0883C16.6046 20.8817 15.3333 18.8061 15.3333 16.1258Z" fill="#848EAA"/>
</g>
<defs>
<clipPath id="clip0_4336_40945">
<rect width="18" height="18" fill="white" transform="translate(6.33333 6)"/>
</clipPath>
</defs>
</svg>
