<svg width="20" height="20" viewBox="0 0 20 20" fill="none" xmlns="http://www.w3.org/2000/svg">
<rect width="20" height="20" rx="4" fill="#FFE9E9"/>
<g clip-path="url(#clip0_3997_19547)">
<path opacity="0.4" d="M5.62591 12.6252H3.87604L3.43857 14.375L5.62591 16.5624L7.37579 16.1249V14.375H5.62591V12.6252ZM16.6173 5.03124L16.6143 5.02823L14.9705 3.38362C14.7241 3.13795 14.3903 3 14.0423 3C13.6943 3 13.3605 3.13795 13.114 3.38362L11.8536 4.64408C11.823 4.67456 11.7987 4.71078 11.7821 4.75066C11.7656 4.79054 11.7571 4.8333 11.7571 4.87648C11.7571 4.91967 11.7656 4.96242 11.7821 5.00231C11.7987 5.04219 11.823 5.07841 11.8536 5.10889L14.8885 8.14383C14.919 8.17442 14.9552 8.19869 14.9951 8.21525C15.035 8.23181 15.0777 8.24033 15.1209 8.24033C15.1641 8.24033 15.2068 8.23181 15.2467 8.21525C15.2866 8.19869 15.3228 8.17442 15.3533 8.14383L16.6138 6.88337C16.8596 6.63813 16.9981 6.30532 16.9988 5.95804C16.9995 5.61077 16.8623 5.27743 16.6173 5.03124Z" fill="#DC241F"/>
<path d="M3.01118 16.2304C2.98098 16.4018 3.0201 16.5781 3.11993 16.7207C3.21977 16.8632 3.37214 16.9603 3.54352 16.9905C3.61887 17.0036 3.69593 17.0036 3.77128 16.9905L5.61193 16.5486L3.45193 14.3886L3.01118 16.2304ZM14.2741 8.76415L11.2391 5.72921C11.177 5.66747 11.093 5.63281 11.0054 5.63281C10.9178 5.63281 10.8337 5.66747 10.7716 5.72921L3.876 12.6254H5.62587V14.3752H7.37575V16.1251L14.2733 9.22814C14.3349 9.16672 14.3696 9.08333 14.3698 8.99631C14.3699 8.9093 14.3355 8.82579 14.2741 8.76415Z" fill="#DC241F"/>
</g>
<defs>
<clipPath id="clip0_3997_19547">
<rect width="14" height="14" fill="white" transform="translate(3 3)"/>
</clipPath>
</defs>
</svg>
