<svg width="129" height="128" viewBox="0 0 129 128" fill="none" xmlns="http://www.w3.org/2000/svg">
<rect width="128" height="128" transform="translate(0.5)" fill="none"/>
<g clip-path="url(#clip0_5931_5076)">
<rect x="32.5" y="24" width="64" height="88" rx="8" fill="url(#paint0_linear_5931_5076)"/>
<g filter="url(#filter0_d_5931_5076)">
<rect x="36.5" y="28" width="56" height="80" rx="5" fill="white"/>
</g>
<g filter="url(#filter1_d_5931_5076)">
<path fill-rule="evenodd" clip-rule="evenodd" d="M55.5 16C53.8431 16 52.5 17.3431 52.5 19V22H46.5C44.8431 22 43.5 23.3431 43.5 25V29C43.5 30.6569 44.8431 32 46.5 32H82.5C84.1569 32 85.5 30.6569 85.5 29V25C85.5 23.3431 84.1569 22 82.5 22H76.5V19C76.5 17.3431 75.1569 16 73.5 16H55.5Z" fill="url(#paint1_linear_5931_5076)"/>
</g>
</g>
<g filter="url(#filter2_d_5931_5076)">
<circle cx="96.5" cy="32" r="16" fill="url(#paint2_linear_5931_5076)"/>
<circle cx="96.5" cy="32" r="14.5" stroke="white" stroke-width="3"/>
</g>
<path fill-rule="evenodd" clip-rule="evenodd" d="M103.613 26.994C104.168 27.6085 104.12 28.557 103.506 29.1126L94.6581 37.1126C94.3499 37.3913 93.94 37.5296 93.526 37.4947C93.112 37.4598 92.7311 37.2547 92.4739 36.9284L89.3218 32.9284C88.8091 32.2777 88.9209 31.3346 89.5716 30.8219C90.2223 30.3091 91.1654 30.4209 91.6782 31.0716L93.8367 33.8108L101.494 26.8874C102.108 26.3318 103.057 26.3795 103.613 26.994Z" fill="white"/>
<defs>
<filter id="filter0_d_5931_5076" x="30.5" y="26" width="68" height="92" filterUnits="userSpaceOnUse" color-interpolation-filters="sRGB">
<feFlood flood-opacity="0" result="BackgroundImageFix"/>
<feColorMatrix in="SourceAlpha" type="matrix" values="0 0 0 0 0 0 0 0 0 0 0 0 0 0 0 0 0 0 127 0" result="hardAlpha"/>
<feOffset dy="4"/>
<feGaussianBlur stdDeviation="3"/>
<feColorMatrix type="matrix" values="0 0 0 0 0.980392 0 0 0 0 0.662745 0 0 0 0 0.12549 0 0 0 0.2 0"/>
<feBlend mode="multiply" in2="BackgroundImageFix" result="effect1_dropShadow_5931_5076"/>
<feBlend mode="normal" in="SourceGraphic" in2="effect1_dropShadow_5931_5076" result="shape"/>
</filter>
<filter id="filter1_d_5931_5076" x="35.5" y="12" width="58" height="32" filterUnits="userSpaceOnUse" color-interpolation-filters="sRGB">
<feFlood flood-opacity="0" result="BackgroundImageFix"/>
<feColorMatrix in="SourceAlpha" type="matrix" values="0 0 0 0 0 0 0 0 0 0 0 0 0 0 0 0 0 0 127 0" result="hardAlpha"/>
<feOffset dy="4"/>
<feGaussianBlur stdDeviation="4"/>
<feColorMatrix type="matrix" values="0 0 0 0 0.1809 0 0 0 0 0.1575 0 0 0 0 0.45 0 0 0 0.1 0"/>
<feBlend mode="multiply" in2="BackgroundImageFix" result="effect1_dropShadow_5931_5076"/>
<feBlend mode="normal" in="SourceGraphic" in2="effect1_dropShadow_5931_5076" result="shape"/>
</filter>
<filter id="filter2_d_5931_5076" x="74.5" y="16" width="44" height="44" filterUnits="userSpaceOnUse" color-interpolation-filters="sRGB">
<feFlood flood-opacity="0" result="BackgroundImageFix"/>
<feColorMatrix in="SourceAlpha" type="matrix" values="0 0 0 0 0 0 0 0 0 0 0 0 0 0 0 0 0 0 127 0" result="hardAlpha"/>
<feOffset dy="6"/>
<feGaussianBlur stdDeviation="3"/>
<feComposite in2="hardAlpha" operator="out"/>
<feColorMatrix type="matrix" values="0 0 0 0 0.356863 0 0 0 0 0.870588 0 0 0 0 0.470588 0 0 0 0.16 0"/>
<feBlend mode="multiply" in2="BackgroundImageFix" result="effect1_dropShadow_5931_5076"/>
<feBlend mode="normal" in="SourceGraphic" in2="effect1_dropShadow_5931_5076" result="shape"/>
</filter>
<linearGradient id="paint0_linear_5931_5076" x1="64.5" y1="24" x2="64.5" y2="112" gradientUnits="userSpaceOnUse">
<stop stop-color="#FFD12D"/>
<stop offset="1" stop-color="#FFB72D"/>
</linearGradient>
<linearGradient id="paint1_linear_5931_5076" x1="64.5" y1="16" x2="64.5" y2="40" gradientUnits="userSpaceOnUse">
<stop stop-color="#D0DDF0"/>
<stop offset="1" stop-color="#B6C1D1"/>
</linearGradient>
<linearGradient id="paint2_linear_5931_5076" x1="96.5" y1="16" x2="96.5" y2="48" gradientUnits="userSpaceOnUse">
<stop stop-color="#63F984"/>
<stop offset="1" stop-color="#5ADA76"/>
</linearGradient>
<clipPath id="clip0_5931_5076">
<rect width="96" height="96" fill="white" transform="translate(16.5 16)"/>
</clipPath>
</defs>
</svg>
