<svg width="94" height="90" viewBox="0 0 94 90" fill="none" xmlns="http://www.w3.org/2000/svg">
<g opacity="0.3">
<path d="M6.25 3C6.25 4.65685 4.85089 6 3.125 6C1.39911 6 0 4.65685 0 3C0 1.34315 1.39911 0 3.125 0C4.85089 0 6.25 1.34315 6.25 3Z" fill="white"/>
<path d="M18.75 3C18.75 4.65685 17.3509 6 15.625 6C13.8991 6 12.5 4.65685 12.5 3C12.5 1.34315 13.8991 0 15.625 0C17.3509 0 18.75 1.34315 18.75 3Z" fill="white"/>
<path d="M31.25 3C31.25 4.65685 29.8509 6 28.125 6C26.3991 6 25 4.65685 25 3C25 1.34315 26.3991 0 28.125 0C29.8509 0 31.25 1.34315 31.25 3Z" fill="white"/>
<path d="M43.75 3C43.75 4.65685 42.3509 6 40.625 6C38.8991 6 37.5 4.65685 37.5 3C37.5 1.34315 38.8991 0 40.625 0C42.3509 0 43.75 1.34315 43.75 3Z" fill="white"/>
<path d="M56.25 3C56.25 4.65685 54.8509 6 53.125 6C51.3991 6 50 4.65685 50 3C50 1.34315 51.3991 0 53.125 0C54.8509 0 56.25 1.34315 56.25 3Z" fill="white"/>
<path d="M68.75 3C68.75 4.65685 67.3509 6 65.625 6C63.8991 6 62.5 4.65685 62.5 3C62.5 1.34315 63.8991 0 65.625 0C67.3509 0 68.75 1.34315 68.75 3Z" fill="white"/>
<path d="M81.25 3C81.25 4.65685 79.8509 6 78.125 6C76.3991 6 75 4.65685 75 3C75 1.34315 76.3991 0 78.125 0C79.8509 0 81.25 1.34315 81.25 3Z" fill="white"/>
<path d="M93.75 3C93.75 4.65685 92.3509 6 90.625 6C88.8991 6 87.5 4.65685 87.5 3C87.5 1.34315 88.8991 0 90.625 0C92.3509 0 93.75 1.34315 93.75 3Z" fill="white"/>
<path d="M6.25 15C6.25 16.6569 4.85089 18 3.125 18C1.39911 18 0 16.6569 0 15C0 13.3431 1.39911 12 3.125 12C4.85089 12 6.25 13.3431 6.25 15Z" fill="white"/>
<path d="M18.75 15C18.75 16.6569 17.3509 18 15.625 18C13.8991 18 12.5 16.6569 12.5 15C12.5 13.3431 13.8991 12 15.625 12C17.3509 12 18.75 13.3431 18.75 15Z" fill="white"/>
<path d="M31.25 15C31.25 16.6569 29.8509 18 28.125 18C26.3991 18 25 16.6569 25 15C25 13.3431 26.3991 12 28.125 12C29.8509 12 31.25 13.3431 31.25 15Z" fill="white"/>
<path d="M43.75 15C43.75 16.6569 42.3509 18 40.625 18C38.8991 18 37.5 16.6569 37.5 15C37.5 13.3431 38.8991 12 40.625 12C42.3509 12 43.75 13.3431 43.75 15Z" fill="white"/>
<path d="M56.25 15C56.25 16.6569 54.8509 18 53.125 18C51.3991 18 50 16.6569 50 15C50 13.3431 51.3991 12 53.125 12C54.8509 12 56.25 13.3431 56.25 15Z" fill="white"/>
<path d="M68.75 15C68.75 16.6569 67.3509 18 65.625 18C63.8991 18 62.5 16.6569 62.5 15C62.5 13.3431 63.8991 12 65.625 12C67.3509 12 68.75 13.3431 68.75 15Z" fill="white"/>
<path d="M81.25 15C81.25 16.6569 79.8509 18 78.125 18C76.3991 18 75 16.6569 75 15C75 13.3431 76.3991 12 78.125 12C79.8509 12 81.25 13.3431 81.25 15Z" fill="white"/>
<path d="M93.75 15C93.75 16.6569 92.3509 18 90.625 18C88.8991 18 87.5 16.6569 87.5 15C87.5 13.3431 88.8991 12 90.625 12C92.3509 12 93.75 13.3431 93.75 15Z" fill="white"/>
<path d="M6.25 27C6.25 28.6569 4.85089 30 3.125 30C1.39911 30 0 28.6569 0 27C0 25.3431 1.39911 24 3.125 24C4.85089 24 6.25 25.3431 6.25 27Z" fill="white"/>
<path d="M18.75 27C18.75 28.6569 17.3509 30 15.625 30C13.8991 30 12.5 28.6569 12.5 27C12.5 25.3431 13.8991 24 15.625 24C17.3509 24 18.75 25.3431 18.75 27Z" fill="white"/>
<path d="M31.25 27C31.25 28.6569 29.8509 30 28.125 30C26.3991 30 25 28.6569 25 27C25 25.3431 26.3991 24 28.125 24C29.8509 24 31.25 25.3431 31.25 27Z" fill="white"/>
<path d="M43.75 27C43.75 28.6569 42.3509 30 40.625 30C38.8991 30 37.5 28.6569 37.5 27C37.5 25.3431 38.8991 24 40.625 24C42.3509 24 43.75 25.3431 43.75 27Z" fill="white"/>
<path d="M56.25 27C56.25 28.6569 54.8509 30 53.125 30C51.3991 30 50 28.6569 50 27C50 25.3431 51.3991 24 53.125 24C54.8509 24 56.25 25.3431 56.25 27Z" fill="white"/>
<path d="M68.75 27C68.75 28.6569 67.3509 30 65.625 30C63.8991 30 62.5 28.6569 62.5 27C62.5 25.3431 63.8991 24 65.625 24C67.3509 24 68.75 25.3431 68.75 27Z" fill="white"/>
<path d="M81.25 27C81.25 28.6569 79.8509 30 78.125 30C76.3991 30 75 28.6569 75 27C75 25.3431 76.3991 24 78.125 24C79.8509 24 81.25 25.3431 81.25 27Z" fill="white"/>
<path d="M93.75 27C93.75 28.6569 92.3509 30 90.625 30C88.8991 30 87.5 28.6569 87.5 27C87.5 25.3431 88.8991 24 90.625 24C92.3509 24 93.75 25.3431 93.75 27Z" fill="white"/>
<path d="M6.25 39C6.25 40.6569 4.85089 42 3.125 42C1.39911 42 0 40.6569 0 39C0 37.3431 1.39911 36 3.125 36C4.85089 36 6.25 37.3431 6.25 39Z" fill="white"/>
<path d="M18.75 39C18.75 40.6569 17.3509 42 15.625 42C13.8991 42 12.5 40.6569 12.5 39C12.5 37.3431 13.8991 36 15.625 36C17.3509 36 18.75 37.3431 18.75 39Z" fill="white"/>
<path d="M31.25 39C31.25 40.6569 29.8509 42 28.125 42C26.3991 42 25 40.6569 25 39C25 37.3431 26.3991 36 28.125 36C29.8509 36 31.25 37.3431 31.25 39Z" fill="white"/>
<path d="M43.75 39C43.75 40.6569 42.3509 42 40.625 42C38.8991 42 37.5 40.6569 37.5 39C37.5 37.3431 38.8991 36 40.625 36C42.3509 36 43.75 37.3431 43.75 39Z" fill="white"/>
<path d="M56.25 39C56.25 40.6569 54.8509 42 53.125 42C51.3991 42 50 40.6569 50 39C50 37.3431 51.3991 36 53.125 36C54.8509 36 56.25 37.3431 56.25 39Z" fill="white"/>
<path d="M68.75 39C68.75 40.6569 67.3509 42 65.625 42C63.8991 42 62.5 40.6569 62.5 39C62.5 37.3431 63.8991 36 65.625 36C67.3509 36 68.75 37.3431 68.75 39Z" fill="white"/>
<path d="M81.25 39C81.25 40.6569 79.8509 42 78.125 42C76.3991 42 75 40.6569 75 39C75 37.3431 76.3991 36 78.125 36C79.8509 36 81.25 37.3431 81.25 39Z" fill="white"/>
<path d="M93.75 39C93.75 40.6569 92.3509 42 90.625 42C88.8991 42 87.5 40.6569 87.5 39C87.5 37.3431 88.8991 36 90.625 36C92.3509 36 93.75 37.3431 93.75 39Z" fill="white"/>
<path d="M6.25 51C6.25 52.6569 4.85089 54 3.125 54C1.39911 54 0 52.6569 0 51C0 49.3431 1.39911 48 3.125 48C4.85089 48 6.25 49.3431 6.25 51Z" fill="white"/>
<path d="M18.75 51C18.75 52.6569 17.3509 54 15.625 54C13.8991 54 12.5 52.6569 12.5 51C12.5 49.3431 13.8991 48 15.625 48C17.3509 48 18.75 49.3431 18.75 51Z" fill="white"/>
<path d="M31.25 51C31.25 52.6569 29.8509 54 28.125 54C26.3991 54 25 52.6569 25 51C25 49.3431 26.3991 48 28.125 48C29.8509 48 31.25 49.3431 31.25 51Z" fill="white"/>
<path d="M43.75 51C43.75 52.6569 42.3509 54 40.625 54C38.8991 54 37.5 52.6569 37.5 51C37.5 49.3431 38.8991 48 40.625 48C42.3509 48 43.75 49.3431 43.75 51Z" fill="white"/>
<path d="M56.25 51C56.25 52.6569 54.8509 54 53.125 54C51.3991 54 50 52.6569 50 51C50 49.3431 51.3991 48 53.125 48C54.8509 48 56.25 49.3431 56.25 51Z" fill="white"/>
<path d="M68.75 51C68.75 52.6569 67.3509 54 65.625 54C63.8991 54 62.5 52.6569 62.5 51C62.5 49.3431 63.8991 48 65.625 48C67.3509 48 68.75 49.3431 68.75 51Z" fill="white"/>
<path d="M81.25 51C81.25 52.6569 79.8509 54 78.125 54C76.3991 54 75 52.6569 75 51C75 49.3431 76.3991 48 78.125 48C79.8509 48 81.25 49.3431 81.25 51Z" fill="white"/>
<path d="M93.75 51C93.75 52.6569 92.3509 54 90.625 54C88.8991 54 87.5 52.6569 87.5 51C87.5 49.3431 88.8991 48 90.625 48C92.3509 48 93.75 49.3431 93.75 51Z" fill="white"/>
<path d="M6.25 63C6.25 64.6569 4.85089 66 3.125 66C1.39911 66 0 64.6569 0 63C0 61.3431 1.39911 60 3.125 60C4.85089 60 6.25 61.3431 6.25 63Z" fill="white"/>
<path d="M18.75 63C18.75 64.6569 17.3509 66 15.625 66C13.8991 66 12.5 64.6569 12.5 63C12.5 61.3431 13.8991 60 15.625 60C17.3509 60 18.75 61.3431 18.75 63Z" fill="white"/>
<path d="M31.25 63C31.25 64.6569 29.8509 66 28.125 66C26.3991 66 25 64.6569 25 63C25 61.3431 26.3991 60 28.125 60C29.8509 60 31.25 61.3431 31.25 63Z" fill="white"/>
<path d="M43.75 63C43.75 64.6569 42.3509 66 40.625 66C38.8991 66 37.5 64.6569 37.5 63C37.5 61.3431 38.8991 60 40.625 60C42.3509 60 43.75 61.3431 43.75 63Z" fill="white"/>
<path d="M56.25 63C56.25 64.6569 54.8509 66 53.125 66C51.3991 66 50 64.6569 50 63C50 61.3431 51.3991 60 53.125 60C54.8509 60 56.25 61.3431 56.25 63Z" fill="white"/>
<path d="M68.75 63C68.75 64.6569 67.3509 66 65.625 66C63.8991 66 62.5 64.6569 62.5 63C62.5 61.3431 63.8991 60 65.625 60C67.3509 60 68.75 61.3431 68.75 63Z" fill="white"/>
<path d="M81.25 63C81.25 64.6569 79.8509 66 78.125 66C76.3991 66 75 64.6569 75 63C75 61.3431 76.3991 60 78.125 60C79.8509 60 81.25 61.3431 81.25 63Z" fill="white"/>
<path d="M93.75 63C93.75 64.6569 92.3509 66 90.625 66C88.8991 66 87.5 64.6569 87.5 63C87.5 61.3431 88.8991 60 90.625 60C92.3509 60 93.75 61.3431 93.75 63Z" fill="white"/>
<path d="M6.25 75C6.25 76.6569 4.85089 78 3.125 78C1.39911 78 0 76.6569 0 75C0 73.3431 1.39911 72 3.125 72C4.85089 72 6.25 73.3431 6.25 75Z" fill="white"/>
<path d="M18.75 75C18.75 76.6569 17.3509 78 15.625 78C13.8991 78 12.5 76.6569 12.5 75C12.5 73.3431 13.8991 72 15.625 72C17.3509 72 18.75 73.3431 18.75 75Z" fill="white"/>
<path d="M31.25 75C31.25 76.6569 29.8509 78 28.125 78C26.3991 78 25 76.6569 25 75C25 73.3431 26.3991 72 28.125 72C29.8509 72 31.25 73.3431 31.25 75Z" fill="white"/>
<path d="M43.75 75C43.75 76.6569 42.3509 78 40.625 78C38.8991 78 37.5 76.6569 37.5 75C37.5 73.3431 38.8991 72 40.625 72C42.3509 72 43.75 73.3431 43.75 75Z" fill="white"/>
<path d="M56.25 75C56.25 76.6569 54.8509 78 53.125 78C51.3991 78 50 76.6569 50 75C50 73.3431 51.3991 72 53.125 72C54.8509 72 56.25 73.3431 56.25 75Z" fill="white"/>
<path d="M68.75 75C68.75 76.6569 67.3509 78 65.625 78C63.8991 78 62.5 76.6569 62.5 75C62.5 73.3431 63.8991 72 65.625 72C67.3509 72 68.75 73.3431 68.75 75Z" fill="white"/>
<path d="M81.25 75C81.25 76.6569 79.8509 78 78.125 78C76.3991 78 75 76.6569 75 75C75 73.3431 76.3991 72 78.125 72C79.8509 72 81.25 73.3431 81.25 75Z" fill="white"/>
<path d="M93.75 75C93.75 76.6569 92.3509 78 90.625 78C88.8991 78 87.5 76.6569 87.5 75C87.5 73.3431 88.8991 72 90.625 72C92.3509 72 93.75 73.3431 93.75 75Z" fill="white"/>
<path d="M6.25 87C6.25 88.6569 4.85089 90 3.125 90C1.39911 90 0 88.6569 0 87C0 85.3431 1.39911 84 3.125 84C4.85089 84 6.25 85.3431 6.25 87Z" fill="white"/>
<path d="M18.75 87C18.75 88.6569 17.3509 90 15.625 90C13.8991 90 12.5 88.6569 12.5 87C12.5 85.3431 13.8991 84 15.625 84C17.3509 84 18.75 85.3431 18.75 87Z" fill="white"/>
<path d="M31.25 87C31.25 88.6569 29.8509 90 28.125 90C26.3991 90 25 88.6569 25 87C25 85.3431 26.3991 84 28.125 84C29.8509 84 31.25 85.3431 31.25 87Z" fill="white"/>
<path d="M43.75 87C43.75 88.6569 42.3509 90 40.625 90C38.8991 90 37.5 88.6569 37.5 87C37.5 85.3431 38.8991 84 40.625 84C42.3509 84 43.75 85.3431 43.75 87Z" fill="white"/>
<path d="M56.25 87C56.25 88.6569 54.8509 90 53.125 90C51.3991 90 50 88.6569 50 87C50 85.3431 51.3991 84 53.125 84C54.8509 84 56.25 85.3431 56.25 87Z" fill="white"/>
<path d="M68.75 87C68.75 88.6569 67.3509 90 65.625 90C63.8991 90 62.5 88.6569 62.5 87C62.5 85.3431 63.8991 84 65.625 84C67.3509 84 68.75 85.3431 68.75 87Z" fill="white"/>
<path d="M81.25 87C81.25 88.6569 79.8509 90 78.125 90C76.3991 90 75 88.6569 75 87C75 85.3431 76.3991 84 78.125 84C79.8509 84 81.25 85.3431 81.25 87Z" fill="white"/>
<path d="M93.75 87C93.75 88.6569 92.3509 90 90.625 90C88.8991 90 87.5 88.6569 87.5 87C87.5 85.3431 88.8991 84 90.625 84C92.3509 84 93.75 85.3431 93.75 87Z" fill="white"/>
</g>
</svg>
